<svg width="520" height="520" viewBox="0 0 520 520" fill="none" xmlns="http://www.w3.org/2000/svg">
<g clip-path="url(#clip0_102_13)" filter="url(#filter0_d_102_13)">
<rect width="512" height="512" transform="translate(4)" fill="white"/>
<g clip-path="url(#clip1_102_13)">
<path d="M260 512C196.436 512.077 135.08 488.685 87.7 446.312C40.8741 404.585 11.0742 347.06 4 284.74L61.84 256L4 227.26C11.0746 164.937 40.8777 107.41 87.708 65.684C135.127 23.3761 196.455 -0.00585938 260.004 -0.00585938C323.553 -0.00585938 384.881 23.3761 432.3 65.684C479.128 107.415 508.928 164.944 516 227.268L458.16 256L516 284.74C508.926 347.06 479.126 404.585 432.3 446.312C384.92 488.685 323.564 512.077 260 512V512Z" fill="#2149B9"/>
<path d="M217.032 354.464L259.568 282.58L301.968 354.464H341.928L280.972 255.664L340.576 158.464H301.02L259.568 229.264L218.116 158.464H178.564L238.3 255.664L177.208 354.464H217.032Z" fill="white"/>
</g>
</g>
<defs>
<filter id="filter0_d_102_13" x="0" y="0" width="520" height="520" filterUnits="userSpaceOnUse" color-interpolation-filters="sRGB">
<feFlood flood-opacity="0" result="BackgroundImageFix"/>
<feColorMatrix in="SourceAlpha" type="matrix" values="0 0 0 0 0 0 0 0 0 0 0 0 0 0 0 0 0 0 127 0" result="hardAlpha"/>
<feOffset dy="4"/>
<feGaussianBlur stdDeviation="2"/>
<feComposite in2="hardAlpha" operator="out"/>
<feColorMatrix type="matrix" values="0 0 0 0 0 0 0 0 0 0 0 0 0 0 0 0 0 0 0.25 0"/>
<feBlend mode="normal" in2="BackgroundImageFix" result="effect1_dropShadow_102_13"/>
<feBlend mode="normal" in="SourceGraphic" in2="effect1_dropShadow_102_13" result="shape"/>
</filter>
<clipPath id="clip0_102_13">
<rect width="512" height="512" fill="white" transform="translate(4)"/>
</clipPath>
<clipPath id="clip1_102_13">
<rect width="512" height="512" fill="white" transform="translate(4)"/>
</clipPath>
</defs>
</svg>
