<svg width="1920" height="512" viewBox="0 0 1920 512" fill="none" xmlns="http://www.w3.org/2000/svg">
<path d="M256.012 512C192.696 511.998 131.597 488.829 84.3768 446.913C37.1561 404.997 7.1197 347.271 0 284.75L57.8407 256.015L0 227.271C7.10954 164.747 37.1406 107.013 84.3604 65.0927C131.58 23.1721 192.681 0 256 0C319.319 0 380.42 23.1721 427.64 65.0927C474.859 107.013 504.89 164.747 512 227.271L454.159 256.015L512 284.75C504.884 347.268 474.852 404.993 427.636 446.909C380.419 488.825 319.325 511.996 256.012 512Z" fill="#2149B9"/>
<path d="M213.038 354.472L255.572 282.578L298.001 354.464H337.966L277.011 255.657L336.573 158.472H297.025L255.572 229.276L214.118 158.472H174.563L234.301 255.665L173.21 354.472H213.038Z" fill="white"/>
<path d="M648.562 138.28L700.139 224.139H701.976L753.827 138.28H802.18L730.069 255.488L803.453 372.712H754.23L702.025 287.433H700.187L647.982 372.712H599L673.142 255.488L599.919 138.28H648.562ZM915.053 372.712H835.608V138.28H916.664C937.551 137.708 958.231 142.538 976.703 152.302C993.36 161.533 1006.84 175.577 1015.39 192.597C1024.85 212.122 1029.48 233.636 1028.89 255.327C1029.48 277.096 1024.82 298.688 1015.32 318.283C1006.68 335.376 993.059 349.444 976.252 358.625C957.388 368.465 936.32 373.315 915.053 372.712V372.712ZM878.079 335.964H912.99C927.155 336.458 941.215 333.364 953.864 326.97C964.803 320.954 973.453 311.499 978.476 300.07C984.401 285.891 987.21 270.605 986.712 255.246C987.218 239.929 984.409 224.683 978.476 210.552C973.51 199.26 964.992 189.9 954.219 183.893C941.887 177.607 928.161 174.556 914.327 175.028H878.079V335.964ZM1269.74 217.37H1227C1225.93 210.767 1223.64 204.421 1220.24 198.657C1217.05 193.304 1212.9 188.588 1207.99 184.747C1203.01 180.882 1197.37 177.955 1191.34 176.108C1184.84 174.121 1178.06 173.137 1171.26 173.191C1159.28 172.983 1147.51 176.307 1137.41 182.749C1127.15 189.613 1119.11 199.32 1114.28 210.681C1108.34 224.856 1105.49 240.139 1105.93 255.504C1105.47 271.024 1108.34 286.463 1114.35 300.779C1119.17 312.088 1127.21 321.726 1137.48 328.485C1147.58 334.79 1159.29 338.032 1171.2 337.817C1177.88 337.865 1184.53 336.92 1190.94 335.013C1196.91 333.229 1202.53 330.42 1207.54 326.712C1212.49 323.015 1216.72 318.436 1220.02 313.206C1223.51 307.609 1225.9 301.393 1227.06 294.896L1269.87 295.121C1268.31 306.112 1264.8 316.734 1259.5 326.487C1254.19 336.262 1247.15 344.998 1238.73 352.275C1229.9 359.885 1219.72 365.788 1208.73 369.682C1196.48 373.985 1183.56 376.102 1170.57 375.936C1151.22 376.258 1132.14 371.304 1115.4 361.607C1098.96 351.78 1085.68 337.436 1077.16 320.281C1067.38 300.118 1062.59 277.893 1063.21 255.488C1062.58 233.052 1067.41 210.799 1077.29 190.646C1085.89 173.525 1099.19 159.211 1115.64 149.385C1132.31 139.713 1151.31 134.765 1170.58 135.072C1182.93 134.965 1195.22 136.82 1206.99 140.569C1217.89 144.067 1228.06 149.53 1236.99 156.686C1245.81 163.814 1253.17 172.589 1258.65 182.523C1264.53 193.331 1268.32 205.154 1269.8 217.37H1269.74Z" fill="#2149B9"/>
<path d="M1311.4 369.505V135.073H1390.62C1406.26 134.448 1421.81 137.856 1435.75 144.969C1446.94 151.029 1456.03 160.349 1461.8 171.692C1467.55 183.364 1470.46 196.234 1470.28 209.247C1470.47 222.276 1467.61 235.171 1461.93 246.898C1456.21 258.31 1447.15 267.714 1435.96 273.863C1422.11 281.064 1406.61 284.52 1391.01 283.888H1334.31V258.696H1390.17C1400.67 259.192 1411.12 256.972 1420.5 252.249C1427.79 248.255 1433.63 242.045 1437.15 234.519C1440.73 226.592 1442.51 217.973 1442.36 209.279C1442.51 200.605 1440.73 192.006 1437.15 184.103C1433.61 176.621 1427.72 170.494 1420.39 166.647C1410.87 162.018 1400.34 159.835 1389.77 160.297H1339.8V369.505H1311.4ZM1564.16 373.631C1553.71 373.777 1543.35 371.608 1533.83 367.281C1525.04 363.286 1517.54 356.903 1512.2 348.858C1506.65 340.132 1503.84 329.942 1504.14 319.605C1503.76 311.025 1505.82 302.513 1510.09 295.057C1514 288.809 1519.49 283.696 1525.99 280.229C1532.93 276.537 1540.35 273.825 1548.03 272.17C1556.08 270.376 1564.18 268.947 1572.35 267.883C1583.03 266.507 1591.71 265.433 1598.4 264.659C1603.47 264.365 1608.45 263.101 1613.05 260.936C1614.6 260 1615.86 258.644 1616.68 257.025C1617.5 255.406 1617.85 253.589 1617.69 251.781V250.863C1617.99 246.099 1617.34 241.324 1615.78 236.813C1614.22 232.303 1611.78 228.148 1608.6 224.591C1604.83 221.228 1600.41 218.664 1595.62 217.052C1590.83 215.439 1585.77 214.813 1580.73 215.21C1569.96 214.589 1559.29 217.572 1550.4 223.688C1543.87 228.387 1538.57 234.59 1534.94 241.772L1509.3 232.617C1513.19 222.851 1519.52 214.241 1527.67 207.603C1535.12 201.727 1543.69 197.442 1552.86 195.015C1561.66 192.652 1570.72 191.438 1579.83 191.404C1586.38 191.493 1592.91 192.161 1599.35 193.403C1606.92 194.818 1614.17 197.592 1620.75 201.591C1628.07 206.149 1634.02 212.597 1637.98 220.255C1643.02 230.653 1645.38 242.143 1644.85 253.683V369.505H1617.74V345.699H1616.37C1614 350.249 1610.9 354.386 1607.21 357.949C1602.3 362.72 1596.51 366.492 1590.16 369.054C1581.89 372.323 1573.05 373.88 1564.16 373.631V373.631ZM1568.3 349.358C1577.73 349.661 1587.06 347.488 1595.38 343.056C1602.33 339.262 1608.11 333.638 1612.1 326.793C1615.8 320.431 1617.76 313.203 1617.77 305.84V281.132C1615.65 283.025 1613.06 284.311 1610.27 284.855C1605.91 286.075 1601.47 287.033 1596.99 287.724C1592 288.53 1587.16 289.217 1582.49 289.787C1577.81 290.356 1574.01 290.835 1571.09 291.221C1564.42 292.056 1557.85 293.529 1551.46 295.621C1545.89 297.337 1540.84 300.45 1536.81 304.664C1532.92 309.177 1530.92 315.022 1531.23 320.975C1531 325.116 1531.84 329.248 1533.68 332.968C1535.51 336.687 1538.28 339.869 1541.71 342.202C1549.64 347.237 1558.92 349.733 1568.3 349.358ZM1705.21 434.991C1701.1 435.059 1696.99 434.719 1692.94 433.976C1690.39 433.561 1687.89 432.852 1685.5 431.865L1692.41 407.962C1700.43 410.516 1709.04 410.454 1717.02 407.785C1721.29 405.176 1724.99 401.743 1727.91 397.686C1730.84 393.628 1732.92 389.029 1734.04 384.156L1739.15 370.424L1674.05 193.677H1703.37L1751.9 333.788H1753.66L1802.19 193.677L1831.72 194.128L1756.88 395.148C1754.01 403.219 1749.79 410.744 1744.41 417.407C1739.76 423.081 1733.86 427.604 1727.18 430.624C1720.24 433.61 1712.75 435.098 1705.19 434.991H1705.21Z" fill="#2A2A2A"/>
</svg>
